<?xml version="1.0" encoding="utf-8"?>
<!-- Generator: Adobe Illustrator 16.0.0, SVG Export Plug-In . SVG Version: 6.00 Build 0)  -->
<!DOCTYPE svg PUBLIC "-//W3C//DTD SVG 1.1//EN" "http://www.w3.org/Graphics/SVG/1.1/DTD/svg11.dtd">
<svg version="1.1" id="Layer_1" xmlns="http://www.w3.org/2000/svg" xmlns:xlink="http://www.w3.org/1999/xlink" x="0px" y="0px"
	 width="15px" height="15px" viewBox="0 0 15 15" enable-background="new 0 0 15 15" xml:space="preserve">
<path fill="#336600" d="M14.729,7.333c0,3.958-3.209,7.167-7.167,7.167c-3.958,0-7.167-3.208-7.167-7.167s3.208-7.167,7.167-7.167
	C11.521,0.167,14.729,3.375,14.729,7.333z M4.974,2.754v9.24h2.032V8.682h1.277c0.577,0,1.069-0.085,1.475-0.253
	s0.735-0.391,0.99-0.666c0.255-0.276,0.44-0.594,0.557-0.952c0.116-0.357,0.175-0.722,0.175-1.093c0-0.379-0.059-0.746-0.175-1.1
	c-0.116-0.354-0.302-0.669-0.557-0.945s-0.585-0.499-0.99-0.667C9.353,2.838,8.86,2.754,8.283,2.754H4.974z M7.006,7.103v-2.77
	h0.721c0.232,0,0.457,0.018,0.673,0.052c0.215,0.035,0.405,0.102,0.568,0.201c0.164,0.099,0.296,0.24,0.395,0.421
	c0.1,0.181,0.148,0.418,0.148,0.711S9.463,6.249,9.363,6.43c-0.099,0.181-0.23,0.321-0.395,0.42C8.806,6.949,8.615,7.016,8.4,7.05
	C8.184,7.085,7.959,7.103,7.727,7.103H7.006z"/>
</svg>
