<?xml version="1.0" encoding="UTF-8" standalone="no"?>
<svg width="48px" height="48px" viewBox="0 0 48 48" version="1.1" xmlns="http://www.w3.org/2000/svg" xmlns:xlink="http://www.w3.org/1999/xlink" style="background: #DFDFDF;">
    <!-- Generator: Sketch 41.2 (35397) - http://www.bohemiancoding.com/sketch -->
    <title>Artboard</title>
    <desc>Created with Sketch.</desc>
    <defs></defs>
    <g id="Nav-Icons" stroke="none" stroke-width="1" fill="none" fill-rule="evenodd">
        <g id="Artboard" fill="#999999">
            <g id="anonL" transform="translate(0.000000, 9.000000)">
                <g id="avatar">
                    <path d="M48,35.728022 L48,40 L0,40 L0,35.728022 C0,35.2115385 0.218727424,34.8598901 0.656182273,34.6648352 C0.717532648,34.6016484 1.10964157,34.3901099 1.82717422,34.0357143 C2.54737427,33.6813187 3.1875521,33.3598901 3.7503751,33.0686813 C4.31319811,32.7802198 5.15609892,32.3928571 6.28174493,31.9148352 C7.40472353,31.4258242 8.46901917,31.0082418 9.46929703,30.6538462 C10.4695749,30.2994505 11.6725757,29.9505495 13.0782995,29.5906593 C14.4840233,29.2362637 15.8764101,28.9313187 17.250125,28.6730769 L17.4368436,22.4972527 C15.4362879,19.9862637 14.43601,17.2472527 14.43601,14.2857143 L14.43601,9.8489011 C14.43601,7.1456044 15.3749375,4.82967033 17.250125,2.89835165 C19.12798,0.967032967 21.3766046,0 23.9986663,0 C26.6233954,0 28.8746874,0.967032967 30.749875,2.8956044 C32.6250625,4.82692308 33.5613226,7.14285714 33.5613226,9.84615385 L33.5613226,14.2884615 C33.5613226,17.1868132 32.6250625,19.8598901 30.749875,22.3049451 L30.8432342,28.771978 C32.2169492,28.9642857 33.5906641,29.2554945 34.9670464,29.6456044 C36.3460961,30.0274725 37.5304251,30.3956044 38.5280356,30.75 C39.5309808,31.1043956 40.5926091,31.5054945 41.7182551,31.956044 C42.8412337,32.4065934 43.6841345,32.7774725 44.2469575,33.0659341 C44.8097805,33.3543956 45.4526257,33.6785714 46.1701584,34.032967 C46.8903584,34.3873626 47.2797999,34.5961538 47.3411503,34.6620879 C47.7812726,34.8598901 48,35.2142857 48,35.728022 L48,35.728022 Z"></path>
                </g>
            </g>
        </g>
    </g>
</svg>