<svg xmlns="http://www.w3.org/2000/svg" version="1.1" width="96px" height="91px" viewBox="0 0 96 91" class=""><title/><desc/><defs><polygon id="path-1" points="70.6666667 56.6928662 70.6666667 0.479680883 0.424133333 0.479680883 0.424133333 56.6928662 70.6666667 56.6928662"/></defs><g id="Page-1" fill="none" fill-rule="evenodd" stroke="none" stroke-width="1"><g id="mark"><polygon id="Fill-1" points="0 96 96 96 96 0 0 0"/><g id="Group-7"><path id="Fill-2" fill="#15375E" d="M48,56.6927324 L25.7573333,34.3682912 L34.2426667,25.8517618 L48,39.6596735 L86.2626667,1.25633529 L3.968,11.8765706 C1.78533333,12.1576 0,14.1943941 0,16.4024824 L0,68.2497324 C0,70.4578206 1.8,72.2644382 4,72.2644382 L24,72.2644382 L24,90.3306147 L42,72.2644382 L92,72.2644382 C94.2,72.2644382 96,70.4578206 96,68.2497324 L96,8.51626176 L48,56.6927324 Z"/><g id="Group-6" transform="translate(25.333333, 0.000000)"><mask id="mask-2" fill="white"><use xmlns:xlink="http://www.w3.org/1999/xlink" xlink:href="#path-1"/></mask><g id="Clip-5"/><path id="Fill-4" fill="#FFCA00" d="M8.90946667,25.8518956 L0.424133333,34.368425 L22.6668,56.6928662 L70.6668,8.51639559 L70.6668,4.01457206 C70.6668,1.80648382 68.8814667,0.230042647 66.6988,0.512410294 L60.9294667,1.25646912 L22.6668,39.6598074 L8.90946667,25.8518956 Z" mask="url(#mask-2)"/></g></g></g></g></svg>